# xmcd CD database file
#
# Track frame offsets:
#	150
#	14395
#	27359
#	39248
#	50713
#	62875
#	72755
#	86277
#	99235
#	106427
#	117719
#	125502
#
# Disc length: 1867 seconds
#
# Revision: 0
# Processed by: cddbd v1.5PL3 Copyright (c) Steve Scherf et al.
# Submitted via: CDex 1.51
#
DISCID=9f07490c
DTITLE=Alberto Vazquez - Con Mariachi - Disco 1
DYEAR=1900
DGENRE=Español
TTITLE0=Albur de amor
TTITLE1=No me amenaces
TTITLE2=Acercame a tu vida
TTITLE3=Por ser vagabundo
TTITLE4=No vayas a llorar
TTITLE5=Con el alma rota
TTITLE6=Si te quedas
TTITLE7=Canta la que sea
TTITLE8=No te preocupes mas por mi
TTITLE9=Estoy pensando en ti
TTITLE10=Psicosis
TTITLE11=La malagueña
EXTD=
EXTT0=
EXTT1=
EXTT2=
EXTT3=
EXTT4=
EXTT5=
EXTT6=
EXTT7=
EXTT8=
EXTT9=
EXTT10=
EXTT11=
PLAYORDER=
